<svg id="Layer_1" data-name="Layer 1" xmlns="http://www.w3.org/2000/svg" viewBox="0 0 180 180"><defs><style>.cls-1{fill:#016a38;}.cls-2{fill:#fffaee;}</style></defs><rect class="cls-1" y="-0.06" width="180" height="180"/><path class="cls-2" d="M89.82,109.19h0a1.78,1.78,0,0,0,.74-3.49h0c-16.73-4.62-30.29,4.81-35.54,5-1.43.06-18.77.65-12.84-16.47,0,0,6.79-15.81,7.39-17.73a12.48,12.48,0,0,0,.6-5.69,3.17,3.17,0,0,0-3.92-2.16,5.32,5.32,0,0,0-1.45.52,17.91,17.91,0,0,0-2,1.3c-.52.38-1,.83-1.46,1.24a.51.51,0,0,1-.85-.24c-.11-.31-.17-.64-.31-1a3.47,3.47,0,0,0-4.38-1.83,5,5,0,0,0-1.21.51c-.68.42-1.32.87-2,1.33-.41.29-.79.62-1.18.93a.39.39,0,0,1-.6-.09c-.19-.21-.36-.43-.54-.64a5.76,5.76,0,0,0-3.12-1.85,9.42,9.42,0,0,0-2.6-.33,11.29,11.29,0,0,0-4.83,1,16.26,16.26,0,0,0-6.46,5.13,10.07,10.07,0,0,0-1.53,2.87,5.75,5.75,0,0,0-.25,3A4.48,4.48,0,0,0,15.9,84a2,2,0,0,0,2-1.29,1.65,1.65,0,0,0-1-2c-.26-.13-.55-.19-.82-.31a1,1,0,0,1-.58-1,4.66,4.66,0,0,1,.89-2.23c7.22-8.48,15.6-11.65,9.53.54-1.53,3-3.09,6.29-4.65,9.24-2,3.85-4.07,7.7-6.09,11.56a12.93,12.93,0,0,0-.74,1.66,1.64,1.64,0,0,0,1,1.86,2.12,2.12,0,0,0,2.59-.56,15.72,15.72,0,0,0,.93-1.59l7-13.18c1.36-2.59,4-8,5.76-10.43,7-10.1,8.1-8,4.68-.3-.91,2-2.9,6.62-3.94,8.61-2.23,4.21-4.45,8.82-6.67,13-.28.54-.58,1.08-.84,1.63a4.67,4.67,0,0,0-.36.94,1.69,1.69,0,0,0,1.38,2,2.08,2.08,0,0,0,2.16-.72,16.52,16.52,0,0,0,1-1.77C31.55,95,34,90.27,36.5,85.59a114.35,114.35,0,0,1,7-11.48c4.56-6.79,6-6,2.76,1.15-.86,2.34-6.4,13.14-7.43,15.44-8,17.24,8.85,23.15,21.7,19.78,1.58-.42,3.12-1,4.7-1.37C77.67,105,87.82,108.91,89.82,109.19Z"/><path class="cls-2" d="M69.77,76.57a8.84,8.84,0,0,1,1.72-2,4.94,4.94,0,0,1,2.08-1.08c2-.5,6.32.64,2.61,6.8A7.83,7.83,0,0,1,70.32,84c-.86.09-1,1.08-1,1.08,1.25-.77,5.15-.47,3.7,4.92a20.77,20.77,0,0,1-1.54,3.91c-.54,1.06-2.18,5.05-2.53,6.19-.87,2.6.85.36,1,.15l2.76-3.32c1.24-1.35,3.31-4.11,3.6-4.47A1.7,1.7,0,0,1,78.19,92a1.45,1.45,0,0,1,1,1.59,2.46,2.46,0,0,1-.16.48,4,4,0,0,1-.23.46,25.72,25.72,0,0,1-4.23,5.09,11.62,11.62,0,0,1-2.52,2,5.64,5.64,0,0,1-1.9.7,3,3,0,0,1-3.4-1.75,4.61,4.61,0,0,1-.27-1.8,8.25,8.25,0,0,1,.3-2.14,20.26,20.26,0,0,1,1.36-3.45c.36-.74,2.46-5,3-6.6.27-.74.5-1.15-.65-.46-.92.5-3.26,2.17-6.2,8-1.1,2.18-2.28,4.32-3.42,6.47a10.69,10.69,0,0,1-.69,1.18,1.78,1.78,0,0,1-2.16.46,1.39,1.39,0,0,1-.77-1.71,10.56,10.56,0,0,1,.52-1.07C60.82,93,68,79.54,68.61,78.57Zm.43,6.61c1.29-1.07,4.91-6.64,5.5-8.13.23-.47,0-.91-.68-.29-1.14,1.1-4.53,6.76-5.16,8.15C69.75,83.18,69.8,83.51,70.2,83.18Z"/><path class="cls-2" d="M113.55,68.63a23.19,23.19,0,0,1,4.71.34,8.25,8.25,0,0,1,2.73.88,4.89,4.89,0,0,1,2.32,6.47c-2.15,5.61-8.79,5.49-9.4,6a.76.76,0,0,0-.39,1c.89,2.12,5.18,4,2.61,9.6-.59,1.45-2,5.47-2.42,7.12s1.06,1.28,1.4.83c.73-.7,6.69-7.18,7.65-8.77a13.49,13.49,0,0,1,.89-1.38,2.08,2.08,0,0,1,2.41-.55,1.64,1.64,0,0,1,1,2,4.74,4.74,0,0,1-.4.93c-1.29,2.34-3.65,4.3-5.7,6.18a13.66,13.66,0,0,1-3.18,2.2,6.68,6.68,0,0,1-2.78.73,3.83,3.83,0,0,1-3.94-2.43,6,6,0,0,1-.35-2.75,13.45,13.45,0,0,1,1-3.89c.37-.87.8-1.72,1.18-2.59s.7-1.6,1-2.42a4.57,4.57,0,0,0,.29-2,1.81,1.81,0,0,0-.43-1.11,10.29,10.29,0,0,1-.72-.76,2.08,2.08,0,0,1,.12-2.78,5.49,5.49,0,0,1,1-.81c.42-.28.9-.49,1.32-.76,1.74-1.13,4.37-5.1,5.12-6.9a4.57,4.57,0,0,0,.32-1.36,1.37,1.37,0,0,0-1-1.44,3.46,3.46,0,0,0-.85-.24.8.8,0,0,0-.79.28c-.37.57-.71,1.17-1,1.77-3,5.72-7.34,14-10.36,19.71-.28.55-.56,1.09-.87,1.62A23.23,23.23,0,0,1,102,98.64a17.55,17.55,0,0,1-3.24,2.47,9,9,0,0,1-3.3,1.22,4.23,4.23,0,0,1-1.33,0A1.67,1.67,0,0,1,93.88,99a3.39,3.39,0,0,1,.43-.11,7.1,7.1,0,0,0,3.52-1.68,18.15,18.15,0,0,0,3.93-4.34,26.48,26.48,0,0,0,1.34-2.3c2.87-5.42,7.2-13.68,10.05-19.1.25-.48.47-1,.67-1.47s-.2-.57-.45-.58a1.85,1.85,0,0,0-.23,0,18.39,18.39,0,0,0-8,2.3c-3.68,1.93-7.71,8-5.08,9.09.27.11.57.17.83.3a1.64,1.64,0,0,1,1,1.83,2,2,0,0,1-1.92,1.42,5.41,5.41,0,0,1-1.33-.19,4.2,4.2,0,0,1-3.36-3.61,5,5,0,0,1,.24-2.36,9.88,9.88,0,0,1,1.57-2.86,14.81,14.81,0,0,1,4.15-3.62,22.82,22.82,0,0,1,10.33-3.1C112.2,68.59,112.88,68.63,113.55,68.63Z"/><path class="cls-2" d="M61.2,92.74c-.25.38-.5.76-.74,1.15-.65,1-2,3.71-2.66,4.74-1.59,2.64-4.57,4.79-3.22.27.25-.86,3-7.13,3-7.2l2.57-6.3a1.66,1.66,0,0,0-.92-2.15,1.59,1.59,0,0,0-2.17.91l-.29.71a3.37,3.37,0,0,0-2.18-.23,5.35,5.35,0,0,0-1.86.77,11.81,11.81,0,0,0-2.45,2,23,23,0,0,0-5.1,8.26c-.76,2.15-.79,3.87-.26,5.05a2.94,2.94,0,0,0,3.2,1.54,5.08,5.08,0,0,0,1.73-.6c.42-.24.81-.52,1.21-.78a5.63,5.63,0,0,1,.62-.37.4.4,0,0,1,.34,0c.26.24.49.5.73.75a3.53,3.53,0,0,0,2.85,1,4,4,0,0,0,1.78-.46,9.14,9.14,0,0,0,1.52-1,14.33,14.33,0,0,0,1.68-1.4,38.66,38.66,0,0,0,3.26-5C65.16,92.36,62.6,90.55,61.2,92.74Zm-14.48,7.64c1-3.28,5.59-11.61,8.16-14.12a3.49,3.49,0,0,1,1-.75c.3-.11.64,0,.57.53a8.9,8.9,0,0,1-.38,1.5c-1,2.79-5.37,10.73-7.49,13C47.25,101.91,46.29,101.81,46.72,100.38Z"/><path class="cls-2" d="M60.21,85.34l0,.06v0Z"/><path class="cls-2" d="M90.63,92.67l-.74,1.15c-.64,1-2,3.72-2.66,4.75-1.58,2.64-4.37,4.87-3,.35.25-.86,3-7.12,3-7.2l2.58-6.3a1.67,1.67,0,0,0-.92-2.15,1.6,1.6,0,0,0-2.18.91l-.29.72a3.3,3.3,0,0,0-2.18-.24,5.35,5.35,0,0,0-1.86.77,11.81,11.81,0,0,0-2.45,2,23,23,0,0,0-5.1,8.26c-.76,2.15-.78,3.87-.25,5a2.92,2.92,0,0,0,3.19,1.54,5.21,5.21,0,0,0,1.74-.6c.41-.24.8-.52,1.21-.78a4.72,4.72,0,0,1,.61-.37.4.4,0,0,1,.34,0c.26.24.49.5.73.75a3.54,3.54,0,0,0,2.85,1,4.06,4.06,0,0,0,1.79-.46,9.48,9.48,0,0,0,1.51-1A12.25,12.25,0,0,0,90,99.45a36.58,36.58,0,0,0,3.26-5C94.6,92.29,92,90.49,90.63,92.67ZM76.35,100.4c1-3.27,5.59-11.61,8.16-14.12a3.49,3.49,0,0,1,1-.75c.3-.11.64,0,.57.53a8.76,8.76,0,0,1-.37,1.5c-1,2.79-5.38,10.73-7.5,13C76.88,101.93,75.93,101.83,76.35,100.4Z"/><path class="cls-2" d="M89.84,85.36l0,.06v0Z"/><path class="cls-2" d="M137.74,92.67c-.24.39-.49.77-.74,1.15-.64,1-2,3.72-2.65,4.75-1.59,2.64-4.38,4.87-3,.35.26-.86,3-7.12,3-7.2l2.58-6.3a1.67,1.67,0,0,0-.92-2.15,1.6,1.6,0,0,0-2.18.91l-.28.72a3.33,3.33,0,0,0-2.19-.24,5.35,5.35,0,0,0-1.86.77,11.81,11.81,0,0,0-2.45,2,23.18,23.18,0,0,0-5.1,8.26c-.75,2.15-.78,3.87-.25,5a2.93,2.93,0,0,0,3.19,1.54,5.13,5.13,0,0,0,1.74-.6c.42-.24.81-.52,1.21-.78a5.51,5.51,0,0,1,.61-.37.42.42,0,0,1,.35,0c.26.24.48.5.72.75a3.54,3.54,0,0,0,2.85,1,4.06,4.06,0,0,0,1.79-.46,9.48,9.48,0,0,0,1.51-1,12.33,12.33,0,0,0,1.49-1.49,38.55,38.55,0,0,0,3.26-5C141.71,92.29,139.15,90.49,137.74,92.67Zm-14.28,7.73c1-3.27,5.59-11.61,8.16-14.12a3.63,3.63,0,0,1,1-.75c.3-.11.64,0,.57.53a8.76,8.76,0,0,1-.37,1.5c-1,2.79-5.38,10.73-7.5,13C124,101.93,123,101.83,123.46,100.4Z"/><path class="cls-2" d="M137,85.36l0,.06v0Z"/><path class="cls-2" d="M165.53,92.67l-.74,1.15c-.64,1-2,3.72-2.66,4.75-1.58,2.64-4.37,4.87-3,.35.25-.86,3-7.12,3-7.2l2.58-6.3a1.67,1.67,0,0,0-.92-2.15,1.6,1.6,0,0,0-2.18.91l-.29.72a3.3,3.3,0,0,0-2.18-.24,5.35,5.35,0,0,0-1.86.77,11.81,11.81,0,0,0-2.45,2,23,23,0,0,0-5.1,8.26c-.76,2.15-.78,3.87-.25,5a2.92,2.92,0,0,0,3.19,1.54,5.21,5.21,0,0,0,1.74-.6c.41-.24.8-.52,1.21-.78a4.72,4.72,0,0,1,.61-.37.4.4,0,0,1,.34,0c.26.24.49.5.73.75a3.54,3.54,0,0,0,2.85,1,4.06,4.06,0,0,0,1.79-.46,9.48,9.48,0,0,0,1.51-1,12.25,12.25,0,0,0,1.48-1.49,36.58,36.58,0,0,0,3.26-5C169.5,92.29,166.93,90.49,165.53,92.67Zm-14.28,7.73c1-3.27,5.59-11.61,8.16-14.12a3.49,3.49,0,0,1,1-.75c.3-.11.64,0,.57.53a8.76,8.76,0,0,1-.37,1.5c-1,2.79-5.38,10.73-7.5,13C151.78,101.93,150.83,101.83,151.25,100.4Z"/><path class="cls-2" d="M164.74,85.36l0,.06v0Z"/><path class="cls-2" d="M140.09,102.22a1.64,1.64,0,0,1-.73-3.19h0c3.79-1.2,7.52-5.09,5-9.54-.15-.27-.43-.66-.69-.66s-.43.36-.57.6c-.39.69-2,3.82-2.43,4.5a1.72,1.72,0,0,1-1.75.75A1.45,1.45,0,0,1,137.6,93c.08-.27,3.3-6.55,4.44-8.7,1-2.41,4-1.33,3.07.9-.08.21-.77,1.5-.77,1.65-.45,1.23,2,3.67,2.46,4.64a4.93,4.93,0,0,1,.38,4.39c0,.31.07.89,1.31-.11a10.07,10.07,0,0,0,2.11-2.32,9.4,9.4,0,0,1,.61-.84,1.75,1.75,0,0,1,1.87-.38,1.39,1.39,0,0,1,1,1.62,3.84,3.84,0,0,1-.34.78,10,10,0,0,1-1.81,2.31,20.85,20.85,0,0,1-11.8,5.31Z"/></svg>